/* XPM */
static char * plankton_game_xpm[] = {
"32 32 579 2",
"  	c #258897",
". 	c #228997",
"+ 	c #218A97",
"@ 	c #228A97",
"# 	c #228B98",
"$ 	c #238B98",
"% 	c #238B97",
"& 	c #268D93",
"* 	c #258D95",
"= 	c #258C96",
"- 	c #258B99",
"; 	c #268C9A",
"> 	c #248A98",
", 	c #248A97",
"' 	c #248998",
") 	c #268A9A",
"! 	c #278B9B",
"~ 	c #288C9C",
"{ 	c #258999",
"] 	c #218897",
"^ 	c #228998",
"/ 	c #238B9A",
"( 	c #248B9A",
"_ 	c #258C9A",
": 	c #268C98",
"< 	c #248A96",
"[ 	c #258B96",
"} 	c #258A99",
"| 	c #248B96",
"1 	c #238A94",
"2 	c #238A96",
"3 	c #248B99",
"4 	c #268C9B",
"5 	c #278D9C",
"6 	c #258B98",
"7 	c #278D9B",
"8 	c #258B9A",
"9 	c #248999",
"0 	c #288A9A",
"a 	c #288A9B",
"b 	c #28899A",
"c 	c #268899",
"d 	c #238997",
"e 	c #238A98",
"f 	c #248A99",
"g 	c #238A97",
"h 	c #248B95",
"i 	c #238995",
"j 	c #248C9A",
"k 	c #268D9C",
"l 	c #268D9B",
"m 	c #268699",
"n 	c #257E95",
"o 	c #238094",
"p 	c #238998",
"q 	c #27899A",
"r 	c #258B9B",
"s 	c #268D97",
"t 	c #258C95",
"u 	c #228B95",
"v 	c #287794",
"w 	c #29608E",
"x 	c #226087",
"y 	c #238195",
"z 	c #248C99",
"A 	c #2D6F94",
"B 	c #2D578E",
"C 	c #254C87",
"D 	c #1C447A",
"E 	c #18527B",
"F 	c #258F9B",
"G 	c #268999",
"H 	c #26899A",
"I 	c #278D98",
"J 	c #268C96",
"K 	c #2C6C92",
"L 	c #2C508C",
"M 	c #234C87",
"N 	c #1A3F79",
"O 	c #11366C",
"P 	c #217F93",
"Q 	c #247D96",
"R 	c #28508A",
"S 	c #204A86",
"T 	c #19427E",
"U 	c #0F356F",
"V 	c #052A63",
"W 	c #166182",
"X 	c #258598",
"Y 	c #268096",
"Z 	c #248095",
"` 	c #258C99",
" .	c #238C98",
"..	c #268C9C",
"+.	c #278E98",
"@.	c #278895",
"#.	c #234D85",
"$.	c #1D4683",
"%.	c #153F7C",
"&.	c #0B326D",
"*.	c #052B64",
"=.	c #0C4071",
"-.	c #293F54",
";.	c #184079",
">.	c #113A76",
",.	c #072F6C",
"'.	c #062D66",
").	c #072D66",
"!.	c #0F4674",
"~.	c #2C7897",
"{.	c #2D598F",
"].	c #264D88",
"^.	c #1D457C",
"/.	c #184D79",
"(.	c #268F9C",
"_.	c #258C9B",
":.	c #278F99",
"<.	c #258593",
"[.	c #133771",
"}.	c #0D3571",
"|.	c #062E69",
"1.	c #062C65",
"2.	c #072E66",
"3.	c #0A2F66",
"4.	c #1D758F",
"5.	c #092F68",
"6.	c #052C65",
"7.	c #072E65",
"8.	c #082E67",
"9.	c #082F67",
"0.	c #17446F",
"a.	c #28558B",
"b.	c #214A86",
"c.	c #1A4380",
"d.	c #103771",
"e.	c #062A64",
"f.	c #13567D",
"g.	c #268F9B",
"h.	c #258D99",
"i.	c #248B98",
"j.	c #248F97",
"k.	c #218992",
"l.	c #09356A",
"m.	c #062D65",
"n.	c #082E66",
"o.	c #092E66",
"p.	c #14537A",
"q.	c #258D98",
"r.	c #0B3D6E",
"s.	c #093067",
"t.	c #0A2F67",
"u.	c #0D356B",
"v.	c #21768E",
"w.	c #193E77",
"x.	c #123B77",
"y.	c #08316D",
"z.	c #0B356A",
"A.	c #279298",
"B.	c #288E9A",
"C.	c #238E96",
"D.	c #239095",
"E.	c #196984",
"F.	c #0A356B",
"G.	c #092F67",
"H.	c #0C346A",
"I.	c #124574",
"J.	c #28919A",
"K.	c #196282",
"L.	c #104472",
"M.	c #185A7F",
"N.	c #258A96",
"O.	c #207B8E",
"P.	c #0A3169",
"Q.	c #104976",
"R.	c #268D98",
"S.	c #268297",
"T.	c #257F94",
"U.	c #248495",
"V.	c #258B97",
"W.	c #278D99",
"X.	c #238D95",
"Y.	c #238E95",
"Z.	c #268E96",
"`.	c #228293",
" +	c #20788F",
".+	c #217B90",
"++	c #258A97",
"@+	c #268C99",
"#+	c #288F9A",
"$+	c #278F9A",
"%+	c #0F4975",
"&+	c #062964",
"*+	c #0A3068",
"=+	c #0B3770",
"-+	c #2D3A41",
";+	c #2E6796",
">+	c #2A538C",
",+	c #214882",
"'+	c #194375",
")+	c #1D6F89",
"!+	c #258E94",
"~+	c #268A97",
"{+	c #268898",
"]+	c #278897",
"^+	c #1A6785",
"/+	c #104674",
"(+	c #16557D",
"_+	c #238495",
":+	c #276B95",
"<+	c #254B87",
"[+	c #1D4785",
"}+	c #153D78",
"|+	c #09386B",
"1+	c #228696",
"2+	c #238996",
"3+	c #228894",
"4+	c #268C95",
"5+	c #258D93",
"6+	c #268B95",
"7+	c #278798",
"8+	c #238994",
"9+	c #248995",
"0+	c #268B97",
"a+	c #278C99",
"b+	c #268B98",
"c+	c #268D99",
"d+	c #268E9C",
"e+	c #1B3F77",
"f+	c #163D79",
"g+	c #0E3773",
"h+	c #062D68",
"i+	c #072A65",
"j+	c #228394",
"k+	c #238896",
"l+	c #218793",
"m+	c #258C97",
"n+	c #248C97",
"o+	c #248F99",
"p+	c #248E99",
"q+	c #248A95",
"r+	c #208895",
"s+	c #238C99",
"t+	c #238B95",
"u+	c #238B94",
"v+	c #238C94",
"w+	c #248C95",
"x+	c #278C98",
"y+	c #268C97",
"z+	c #269099",
"A+	c #0F3F6F",
"B+	c #062C66",
"C+	c #052C66",
"D+	c #0A346A",
"E+	c #238696",
"F+	c #248E98",
"G+	c #248996",
"H+	c #268D9A",
"I+	c #1F7B8F",
"J+	c #072C66",
"K+	c #082D66",
"L+	c #0A2E68",
"M+	c #185075",
"N+	c #248E9A",
"O+	c #278898",
"P+	c #238D97",
"Q+	c #228D97",
"R+	c #268B9A",
"S+	c #278C9B",
"T+	c #248A94",
"U+	c #248A93",
"V+	c #207D8F",
"W+	c #135178",
"X+	c #114874",
"Y+	c #1B6C88",
"Z+	c #2C6971",
"`+	c #2C698D",
" @	c #2C548C",
".@	c #224C80",
"+@	c #216687",
"@@	c #268A99",
"#@	c #238B96",
"$@	c #228C96",
"%@	c #228C97",
"&@	c #258998",
"*@	c #288C9B",
"=@	c #278B9A",
"-@	c #248994",
";@	c #2A6790",
">@	c #284F8A",
",@	c #173E78",
"'@	c #0C3169",
")@	c #175D80",
"!@	c #218B95",
"~@	c #228A95",
"{@	c #278797",
"]@	c #288899",
"^@	c #298999",
"/@	c #288898",
"(@	c #268797",
"_@	c #278894",
":@	c #278893",
"<@	c #268894",
"[@	c #1F457E",
"}@	c #19417E",
"|@	c #113A77",
"1@	c #09306B",
"2@	c #042B64",
"3@	c #093369",
"4@	c #228895",
"5@	c #208894",
"6@	c #218A95",
"7@	c #228A94",
"8@	c #248C93",
"9@	c #248C92",
"0@	c #258A93",
"a@	c #258B94",
"b@	c #248B94",
"c@	c #238A93",
"d@	c #228993",
"e@	c #238993",
"f@	c #258B95",
"g@	c #278F98",
"h@	c #0E326B",
"i@	c #082F69",
"j@	c #062D67",
"k@	c #0B366A",
"l@	c #228896",
"m@	c #228995",
"n@	c #228994",
"o@	c #228A93",
"p@	c #238B93",
"q@	c #238C92",
"r@	c #248C90",
"s@	c #258B92",
"t@	c #258C92",
"u@	c #278E97",
"v@	c #114D76",
"w@	c #093068",
"x@	c #175E7F",
"y@	c #238B92",
"z@	c #248B90",
"A@	c #258894",
"B@	c #15577C",
"C@	c #0A3268",
"D@	c #0F295C",
"E@	c #186787",
"F@	c #238894",
"G@	c #258A95",
"H@	c #258A94",
"I@	c #248A92",
"J@	c #258D92",
"K@	c #258C93",
"L@	c #268E97",
"M@	c #258D96",
"N@	c #2A8C97",
"O@	c #298B96",
"P@	c #288A95",
"Q@	c #278994",
"R@	c #288C96",
"S@	c #289097",
"T@	c #26949B",
"U@	c #31414B",
"V@	c #238193",
"W@	c #288C98",
"X@	c #278A95",
"Y@	c #278A94",
"Z@	c #298292",
"`@	c #2C698F",
" #	c #245D86",
".#	c #227289",
"+#	c #248F95",
"@#	c #238A95",
"##	c #2C8E99",
"$#	c #2A8B97",
"%#	c #288995",
"&#	c #288994",
"*#	c #2A8193",
"=#	c #2E5D8F",
"-#	c #294F89",
";#	c #1F467E",
">#	c #2C578E",
",#	c #224B80",
"'#	c #216284",
")#	c #298193",
"!#	c #2E558D",
"~#	c #264E8A",
"{#	c #1E457F",
"]#	c #14366E",
"^#	c #175D7D",
"/#	c #268D96",
"(#	c #288F98",
"_#	c #258395",
":#	c #247F94",
"<#	c #277890",
"[#	c #278192",
"}#	c #298995",
"|#	c #288894",
"1#	c #295D8B",
"2#	c #1C4683",
"3#	c #123A74",
"4#	c #214A87",
"5#	c #183F7A",
"6#	c #0D326A",
"7#	c #13587B",
"8#	c #255786",
"9#	c #204884",
"0#	c #194280",
"a#	c #0F3772",
"b#	c #073168",
"c#	c #248795",
"d#	c #288993",
"e#	c #298A93",
"f#	c #2A8B94",
"g#	c #288E95",
"h#	c #268D94",
"i#	c #258C94",
"j#	c #237E93",
"k#	c #248093",
"l#	c #1F5888",
"m#	c #1D5F85",
"n#	c #1C6082",
"o#	c #1F7088",
"p#	c #298E97",
"q#	c #193C76",
"r#	c #143C78",
"s#	c #0C3571",
"t#	c #123B79",
"u#	c #09316C",
"v#	c #073167",
"w#	c #163B71",
"x#	c #103772",
"y#	c #09326C",
"z#	c #042C66",
"A#	c #072B66",
"B#	c #248694",
"C#	c #298793",
"D#	c #298092",
"E#	c #288091",
"F#	c #268C94",
"G#	c #227991",
"H#	c #1B4982",
"I#	c #14457E",
"J#	c #0A396C",
"K#	c #165F7E",
"L#	c #0C366B",
"M#	c #062E68",
"N#	c #0A3369",
"O#	c #124F76",
"P#	c #052A64",
"Q#	c #112A59",
"R#	c #288397",
"S#	c #28508B",
"T#	c #1F467F",
"U#	c #194775",
"V#	c #24848F",
"W#	c #268D95",
"X#	c #1F718A",
"Y#	c #16587F",
"Z#	c #052C67",
"`#	c #0C406F",
" $	c #196581",
".$	c #22808F",
"+$	c #196883",
"@$	c #062B65",
"#$	c #0A3067",
"$$	c #145379",
"%$	c #248893",
"&$	c #0D3F6F",
"*$	c #093167",
"=$	c #0A3168",
"-$	c #0E3A6E",
";$	c #1D748F",
">$	c #304243",
",$	c #2B4672",
"'$	c #234C88",
")$	c #1C4583",
"!$	c #0C4068",
"~$	c #279196",
"{$	c #1C7387",
"]$	c #0C3F6E",
"^$	c #0B3A6C",
"/$	c #0C396B",
"($	c #0E4170",
"_$	c #17607F",
":$	c #258E96",
"<$	c #1D7488",
"[$	c #124D75",
"}$	c #174066",
"|$	c #185B7E",
"1$	c #238692",
"2$	c #248993",
"3$	c #228590",
"4$	c #1E7A8A",
"5$	c #217A8E",
"6$	c #248393",
"7$	c #268F9A",
"8$	c #193C77",
"9$	c #0B3470",
"0$	c #062E67",
"a$	c #000717",
"b$	c #18595E",
"c$	c #23878E",
"d$	c #1A6B82",
"e$	c #145879",
"f$	c #155D7D",
"g$	c #208390",
"h$	c #278F94",
"i$	c #2D7994",
"j$	c #2C4F7A",
"k$	c #258F98",
"l$	c #228E94",
"m$	c #208A92",
"n$	c #208790",
"o$	c #238892",
"p$	c #248892",
"q$	c #268893",
"r$	c #208E94",
"s$	c #218D94",
"t$	c #248D94",
"u$	c #0C366A",
"v$	c #000511",
"w$	c #383B3B",
"x$	c #145B60",
"y$	c #228990",
"z$	c #238A91",
"A$	c #22888F",
"B$	c #22858F",
"C$	c #21818D",
"D$	c #248E93",
"E$	c #248D92",
"F$	c #238C91",
"G$	c #2D6490",
"H$	c #2B508C",
"I$	c #224A86",
"J$	c #268994",
"K$	c #218D95",
"L$	c #238C95",
"M$	c #186581",
"N$	c #0B326B",
"O$	c #000005",
"P$	c #FFFFFF",
"Q$	c #2D3030",
"R$	c #175D62",
"S$	c #248B92",
"T$	c #258D94",
"U$	c #247B8E",
"V$	c #234C85",
"W$	c #1D4582",
"X$	c #133D79",
"Y$	c #258993",
"Z$	c #278C95",
"`$	c #1D7186",
" %	c #114B73",
".%	c #134E76",
"+%	c #20788B",
"@%	c #000C0D",
"#%	c #FCFCFC",
"$%	c #232525",
"%%	c #166064",
"&%	c #268C93",
"*%	c #258B93",
"=%	c #1F7187",
"-%	c #133972",
";%	c #0C3470",
">%	c #052D68",
",%	c #248C96",
"'%	c #248991",
")%	c #248A91",
"!%	c #248B93",
"~%	c #000B0C",
"{%	c #F0F0F0",
"]%	c #3B3F3F",
"^%	c #186066",
"/%	c #278B94",
"(%	c #268B93",
"_%	c #268A92",
":%	c #258A92",
"<%	c #1F798A",
"[%	c #083168",
"  . + @ # $ % & * = - ; > , , , , ' ) ! ~ ) { ] ] ^ / ( _ : < [ ",
"} | 1 2 3 4 5 6 ; 7 4 8 > > > > > 9 0 a b c c d e > f 8 - % g % ",
"8 [ h i e j k 8 4 4 l m n o f p ' f a b q c c g > - > - - @ $ $ ",
"r s t u v w x y f z A B C D E F p f ) { G H { g > - > - - $ @ $ ",
"5 I J K L M N O P Q R S T U V W j X Y Z f 3 8 d > - > - `  .$ $ ",
"..+.@.#.$.%.&.*.=.-.;.>.,.'.).!.~.{.].^./.(._.d > - > - _ z $ $ ",
"4 :.<.[.}.|.1.2.3.4.5.6.7.8.9.0.a.b.c.d.e.f.g.> > - > - ` h.z i.",
"- j.k.l.m.n.9.o.p.q.r.e.s.t.u.v.w.x.y.'.'.z.A.- - > - > 6 : B.B.",
"> C.D.E.F.G.H.I.: : J.K.L.M.N.O.P.6.).8.n.Q.R.S.T.U.` > > V.W.W.",
"d X.Y.Z.`. +.+++: W.@+#+$+R.: ++%+&+G.*+=+-+;+>+,+'+)+> d < V.: ",
"> * !+t ~+{+]+< < V.: W.W.W.: V.J.^+/+(+_+:+<+[+}+P.|+1+2+3+V.V.",
"8 4+5+6+~+7+7+8+9+< 0+: W.W.a+b+b+c+d+_ d+e+f+g+h+m.i+j+k+l+< m+",
"n+o+p+q.< < q+r++ z z s+t+u+u+v+v+w+x+y+z+A+B+C+2.G.D+E+e + ' {+",
"n+F+F+q.< N.G+. > ; H+_ w+w+w+w+w+t : V.V.I+J+K+*+L+M+z p+N+` O+",
"| P+Q+n+++N.G+> R+S+S+R+T+U+U+U+U+T+< < < < V+W+X+Y+Z+`+ @.@+@@@",
"#@$@%@n+V.V.N.&@R+*@=@{ -@T+T+T+T+-@i i i i < g $ i.;@>@S ,@'@)@",
"#@!@!@~@G+V.~+{@]@^@/@(@_@_@:@_@_@<@l+3+3+< q+d p ` [@}@|@1@2@3@",
"4@5@6@7@1 8@9@0@a@T+G+G+b@c@1 d@e@e@i 3+3+i i T+f@g@h@i@j@).n.k@",
"l@m@n@o@p@q@r@s@t@c@q+G+h u+u+o@k.o@< < < < < b@t u@v@1.n.w@t.x@",
"l@i i 1 p@y@z@t@t@c@q+G+t+u+w+u+u+o@b+V.V.V.V.4+4+J A@B@C@D@E@F@",
"> ++0+G@H@I@r@J@K@c@q+G+t+w+L@M@u+o@< V.V.W.c+N@O@P@Q@R@S@T@U@V@",
"p+:.W@X@Y@Z@`@ #.#+#@#G+t+M@g@L@w+d@G+< V.: c+##$#%#_@&#*#=#-#;#",
">#,#'#_@)#!#~#{#]#^#9+< b@/#(#g@w+o@i i | _#:#<#[#}#|#P@1#M 2#3#",
"4#5#6#7#8#9#0#a#'.b#c#V.d#e#f#g#h#i#< < j#k#l#m#n#o#O@p#q#r#s#j@",
"t#u#2@v#w#x#y#z#2.A#B#V.C#D#E#:@h#F#: y+G#H#I#s#J#K#6+Z.L#6.'.8.",
"M#).n.N#O#P#).9.s.Q#j R#=#S#T#U#V#W#u@J X#Y#,.Z#`# $.$t +$@$n.*+",
"n.s.#$$$%$&$*$=$-$;$>$,$'$)$3#8.!$~$K@5+{$]$^$/$($_$:$b@!+<$[$}$",
"k@H.|$1$2$3$4$5$6$y+7$8$r#9$j@0$a$b$z@z@c$d$e$f$_$g$o@7@p@h$i$j$",
"k$l$m$n$o$p$q$r$s$o@t$u$6.'.8.w@v$w$x$y$z$A$B$C$D$E$E$F$y@G$H$I$",
"< d@k.c@2$J$Q@K$L$c@b@M$@$n.*+N$O$P$Q$R$8@S$S$T$K@8@8@y@U$V$W$X$",
"2+h w+w+6+X@X@L$w+U+Y$Z$`$ %.%+%@%P$#%$%%%K@h#&%K@s@*%I@=%-%;%>%",
"i ,%M@M@6+X@X@w+t Y$Q@|#'%)%)%!%~%P$P${%]%^%S$/%(%_%(%:%<%[%'.n."};
